<svg xmlns="http://www.w3.org/2000/svg" width="490" height="262" viewBox="0 0 490 262" role="img" aria-labelledby="t d">
<title id="t">ISSS Salud</title><desc id="d">App móvil nativa para gestionar citas médicas, chatear con doctores y consultar noticias de salud. Interfaces de la app y módulo de chat.</desc>
<defs><linearGradient id="bg" x1="0" y1="0" x2="1" y2="1"><stop offset="0" stop-color="#0b1020"/><stop offset="1" stop-color="#1b2a4a"/></linearGradient>
<linearGradient id="ac" x1="0" y1="0" x2="1" y2="0"><stop offset="0" stop-color="#22d3ee"/><stop offset="1" stop-color="#818cf8"/></linearGradient></defs>
<rect width="490" height="262" rx="16" fill="url(#bg)"/>
<rect x=".5" y=".5" width="489" height="261" rx="16" fill="none" stroke="#818cf8" stroke-opacity=".35"/>
<rect x="0" y="0" width="6" height="262" rx="3" fill="url(#ac)"/>
<rect x="28" y="20" width="185" height="24" rx="12" fill="#22d3ee" fill-opacity=".14"/>
<text x="39" y="36" font-family="Consolas, Menlo, monospace" font-size="12" fill="#22d3ee">COLABORACIÓN · ANDROID</text>
<text x="28" y="76" font-family="Segoe UI, Helvetica, Arial, sans-serif" font-size="26" font-weight="700" fill="#f8fafc">ISSS Salud</text>
<text x="28" y="110" font-family="Segoe UI, Helvetica, Arial, sans-serif" font-size="15" fill="#cbd5e1">App móvil nativa para gestionar citas médicas, chatear</text>
<text x="28" y="132" font-family="Segoe UI, Helvetica, Arial, sans-serif" font-size="15" fill="#cbd5e1">con doctores y consultar noticias de salud.</text>
<text x="28" y="158" font-family="Consolas, Menlo, monospace" font-size="12" fill="#818cf8">MI APORTE</text>
<text x="28" y="179" font-family="Segoe UI, Helvetica, Arial, sans-serif" font-size="14" fill="#e2e8f0">Interfaces de la app y módulo de chat.</text>
<rect x="28" y="203" width="60" height="22" rx="11" fill="#ffffff" fill-opacity=".08"/>
<text x="37" y="218" font-family="Consolas, Menlo, monospace" font-size="12" fill="#e2e8f0">Kotlin</text>
<rect x="96" y="203" width="67" height="22" rx="11" fill="#ffffff" fill-opacity=".08"/>
<text x="105" y="218" font-family="Consolas, Menlo, monospace" font-size="12" fill="#e2e8f0">Android</text>
<rect x="171" y="203" width="60" height="22" rx="11" fill="#ffffff" fill-opacity=".08"/>
<text x="180" y="218" font-family="Consolas, Menlo, monospace" font-size="12" fill="#e2e8f0">Oracle</text>
<rect x="239" y="203" width="102" height="22" rx="11" fill="#ffffff" fill-opacity=".08"/>
<text x="248" y="218" font-family="Consolas, Menlo, monospace" font-size="12" fill="#e2e8f0">RecyclerView</text>
</svg>